<svg xmlns="http://www.w3.org/2000/svg" width="320.379" height="218.136" viewBox="0 0 320.379 218.136">
  <g id="BAYCB" transform="translate(-1303.45 -229.563)">
    <path id="Path_36" data-name="Path 36" d="M1303.45,229.563h26.72c12.965,0,20.459,5.76,20.459,15.713,0,7.771-3.439,11.175-6.526,13.184v.174c3.969,1.311,8.994,5.849,8.994,15.1,0,11.96-8.375,18.246-21.427,18.246H1303.45Zm36.861,17.2c0-5.5-3.439-8.731-9.877-8.731h-17.018v17.2h16.314c7.848,0,10.582-2.881,10.582-8.47m2.47,26.542c0-6.549-4.057-9.6-10.672-9.6h-18.694v19.818h17.46c9.172,0,11.906-4.365,11.906-10.214m18.251-43.74h44.711v8.467H1371v17.46h30.423v8.47H1371v19.557h35.626v8.468h-45.591Zm109.7,47.492h-26.1l-5.2,14.929h-10.493l23.457-62.421h10.758l23.634,62.421h-10.847Zm-23.192-8.294h20.282l-10.053-28.635h-.178Zm46.646-39.2h9.966v53.954H1535.9v8.468h-41.712Zm49.38,0h9.966v53.954h31.746v8.468h-41.712ZM1326.026,344.3l-22.576-37.54H1315l15.962,27.326h.178l16.048-27.326h11.465l-22.576,37.54v24.883h-10.052Zm31.3-6.372c0-18.769,11.9-32.477,30.424-32.477s30.423,13.707,30.423,32.477-11.9,32.564-30.423,32.564-30.424-13.794-30.424-32.564m50.529,0c0-12.746-5.729-23.921-20.1-23.921s-20.019,11.175-20.019,23.921,5.645,24.009,20.019,24.009,20.1-11.262,20.1-24.009m18.515,10.04V306.764h10.055v41.207c0,9.6,4.85,13.969,14.728,13.969s14.727-4.365,14.727-13.969V306.764h9.965v41.207c0,13.446-7.32,22.524-24.691,22.524-17.461,0-24.783-9.079-24.783-22.524M1303.45,415.223c0-18.859,11.554-32.564,29.543-32.564,15.873,0,25.574,10.037,27.072,22.61h-10.316c-1.149-6.2-5.027-14.055-16.933-14.055-13.844,0-18.961,11.612-18.961,23.921,0,12.4,5.116,24.01,18.961,24.01,11.993,0,16.226-7.858,16.933-15.542h10.316c-1.41,13.969-11.2,24.1-27.161,24.1-17.992,0-29.455-13.707-29.455-32.477M1404.6,431.46h-26.1l-5.205,14.929H1362.8l23.456-62.423h10.759l23.634,62.423H1409.8Zm-23.193-8.294h20.284l-10.053-28.635h-.177Zm46.648-39.2h11.286l29.013,47.581h.177V383.966h9.966v62.423H1467.2l-29.013-47.58h-.175v47.58h-9.965Zm77.421,0h26.72c12.962,0,20.459,5.762,20.459,15.714,0,7.771-3.438,11.175-6.527,13.184v.174c3.969,1.311,9,5.849,9,15.1,0,11.96-8.379,18.246-21.43,18.246h-28.219Zm36.86,17.2c0-5.5-3.437-8.729-9.876-8.729h-17.02v17.2h16.315c7.848,0,10.58-2.881,10.58-8.47m2.471,26.542c0-6.549-4.058-9.6-10.669-9.6h-18.7v19.818H1532.9c9.172,0,11.907-4.365,11.907-10.214m17.9-43.741h44.711v8.469h-34.745V409.9h30.423v8.468h-30.423v19.557h35.626v8.468H1562.7Zm52.636,53.94h8.491v8.483h-8.491Z" transform="translate(0)" fill="#ffbf00"/>
  </g>
</svg>
