<svg id="bookmark_icon" xmlns="http://www.w3.org/2000/svg" width="16.612" height="19.259" viewBox="0 0 16.612 19.259">
  <path id="Vector_" data-name="Vector " d="M2.805,2.53a1.872,1.872,0,0,0-.879,1.717V17.3l6.371-3,6.386,3.015,0,0V4.254a1.91,1.91,0,0,0-.9-1.723,5.008,5.008,0,0,0-2.663-.6H5.461A4.988,4.988,0,0,0,2.805,2.53ZM1.76.913A6.857,6.857,0,0,1,5.461,0h5.663A6.877,6.877,0,0,1,14.83.912a3.83,3.83,0,0,1,1.781,3.324V17.4a1.828,1.828,0,0,1-.235.9l0,.006a1.9,1.9,0,0,1-1.14.88,1.926,1.926,0,0,1-1.423-.153L8.3,16.431l-5.537,2.61a1.98,1.98,0,0,1-.869.209A1.87,1.87,0,0,1,0,17.4V4.248A3.79,3.79,0,0,1,1.76.913Z" transform="translate(0 0)" fill="#fff"/>
</svg>
