<svg id="logo" xmlns="http://www.w3.org/2000/svg" xmlns:xlink="http://www.w3.org/1999/xlink" width="68.5" height="67.727" viewBox="0 0 68.5 67.727">
  <defs>
    <clipPath id="clip-path">
      <rect id="Rectangle_1" data-name="Rectangle 1" width="68.5" height="67.727" fill="none"/>
    </clipPath>
  </defs>
  <g id="Group_1" data-name="Group 1" clip-path="url(#clip-path)">
    <path id="Path_1" data-name="Path 1" d="M6.736,13.126h4.352c.27,0,.4-.052.429-.281.043-.4.307-.7.372-1.1a6.244,6.244,0,0,1,.429-1.06c.132-.361.2-.748.352-1.1.163-.367.289-.749.455-1.111s.157-.766.44-1.062a5.708,5.708,0,0,1,.4-1.19,13.428,13.428,0,0,1,.53-1.42c.431-1.121.793-2.268,1.3-3.361.167-.362.23-.771.377-1.144A.4.4,0,0,1,16.6,0c1.488.031,2.976.014,4.464.015.425,0,.536.05.632.433.2.8.551,1.546.824,2.318.224.636.454,1.279.717,1.906.209.5.431.994.6,1.5s.42.969.553,1.464c.248.916.658,1.767.961,2.659.244.72.515,1.442.814,2.147.19.449.35.91.515,1.369a10.118,10.118,0,0,0,.378,1.087,12.42,12.42,0,0,1,.512,1.313c.16.442.31.9.489,1.324.3.723.521,1.477.852,2.191.2.421.3.89.478,1.327.307.739.528,1.512.85,2.248.2.462.336.953.514,1.426.318.847.674,1.682.963,2.539.257.761.593,1.489.845,2.25.087.264.188.525.282.787.246-.186.162-.548.4-.741.13-.693.5-1.3.683-1.978.04-.144.2-.281.188-.406a2.08,2.08,0,0,0-.23-.691c-.292-.563-.393-1.194-.644-1.768-.336-.768-.548-1.579-.853-2.359-.341-.875-.638-1.771-.95-2.659-.145-.411-.3-.818-.445-1.229s-.273-.825-.436-1.232c-.12-.3-.208-.632-.313-.945-.28-.843-.612-1.668-.908-2.505-.291-.822-.52-1.669-.851-2.473-.353-.856-.621-1.739-.938-2.606-.341-.933-.659-1.877-.994-2.811a19.738,19.738,0,0,0-.724-1.96,10.194,10.194,0,0,1-.494-1.433c-.093-.3-.242-.582-.332-.879A3.084,3.084,0,0,0,24.683.8C24.6.674,24.72.48,24.529.408,24.4.017,24.4.015,24.8.015c1.752,0,3.5,0,5.256-.005.232,0,.3.04.384.3.313.961.67,1.907,1,2.864.226.66.462,1.316.681,1.979.1.309.261.6.346.93s.257.607.361.924c.269.829.531,1.664.87,2.465.327.772.56,1.576.856,2.357.331.878.641,1.771.943,2.662.14.412.311.814.447,1.227.13.4.277.79.416,1.183.2.559.4,1.114.6,1.672.042.115.074.233.115.348a.388.388,0,0,0,.058.084.765.765,0,0,0,.053-.091c.189-.449.409-.889.557-1.351.155-.484.379-.937.546-1.413.289-.822.653-1.614.946-2.435.157-.439.365-.866.53-1.305.307-.815.634-1.622.928-2.441.152-.426.342-.838.514-1.256.337-.822.618-1.667.965-2.482.253-.594.476-1.2.7-1.8.323-.846.684-1.676.994-2.528.214-.588.464-1.164.666-1.759A.225.225,0,0,1,44.672.02.8.8,0,0,1,44.9.014h5.256a1.033,1.033,0,0,1,.28.008c.043.013.105.125.089.156a12.961,12.961,0,0,0-.505,1.317c-.322.828-.674,1.643-.963,2.484-.147.427-.348.835-.521,1.253-.258.628-.492,1.266-.722,1.905-.206.573-.455,1.13-.672,1.7-.229.6-.467,1.2-.7,1.8-.169.434-.37.867-.53,1.305-.228.621-.522,1.216-.7,1.859-.121.433-.345.836-.508,1.258-.319.829-.665,1.646-.967,2.482-.284.784-.6,1.561-.911,2.335-.381.935-.778,1.864-1.112,2.818-.2.558-.442,1.1-.645,1.654-.37,1.015-.839,1.989-1.167,3.021-.173.546-.449,1.059-.628,1.6-.365,1.11-.782,2.2-1.2,3.291-.393,1.021-.722,2.07-1.183,3.071-.237.514-.393,1.079-.586,1.62a4.46,4.46,0,0,1-.325.825.961.961,0,0,0,0,.961c.307.668.493,1.379.771,2.055.219.532.412,1.073.615,1.61.291.765.564,1.537.85,2.3.164.44.347.874.509,1.315.4,1.1.795,2.2,1.2,3.289.3.8.589,1.6.947,2.377.188.409.26.87.413,1.3.182.507.425.994.589,1.507.26.815.683,1.569.868,2.412a1.4,1.4,0,0,0,.258.4,3.514,3.514,0,0,0,.184-.4c.25-.78.543-1.545.857-2.3a.957.957,0,0,0,.046-.958c-.156-.48-.34-.952-.519-1.424-.2-.521-.409-1.037-.606-1.558-.086-.228-.133-.473-.231-.7-.416-.941-.746-1.916-1.1-2.879a33.009,33.009,0,0,1-1.16-3.25,22.956,22.956,0,0,1-1.076-2.719c-.3-.759-.619-1.518-.845-2.307-.01-.034,0-.081-.02-.1-.335-.394-.155-.776-.028-1.2.188-.621.494-1.193.689-1.807.354-1.114.816-2.188,1.189-3.3.232-.688.524-1.364.769-2.053.017-.05.029-.1.043-.152.053.044.134.078.155.134.167.44.322.884.48,1.328.135.377.266.756.4,1.132.313.85.674,1.681.958,2.543.146.446.371.865.515,1.312.358,1.112.779,2.205,1.2,3.29a31.6,31.6,0,0,0,1.441,3.641c.12.732.507,1.377.683,2.091.016.065.077.118.109.181a.979.979,0,0,1,.047.15,1.032,1.032,0,0,0,.066-.12c.115-.292.247-.578.336-.878.174-.587.407-1.149.634-1.716.143-.356.235-.728.378-1.087.233-.581.439-1.176.645-1.766.236-.675.5-1.338.724-2.019.145-.447.334-.879.491-1.322.292-.821.549-1.656.868-2.466.332-.843.617-1.7.963-2.54.319-.773.564-1.575.839-2.365a9.157,9.157,0,0,1,.378-1.086,10.646,10.646,0,0,0,.513-1.426c.075-.224.155-.3.373-.3q2.8,0,5.595,0c.262,0,.071.1.04.175-.194.5-.39,1.007-.564,1.518-.1.3-.254.578-.332.878a7.714,7.714,0,0,1-.3.837c-.258.666-.486,1.344-.725,2.017-.134.378-.263.758-.4,1.134-.24.654-.468,1.313-.735,1.957-.274.661-.448,1.355-.735,2.013-.244.558-.41,1.148-.618,1.722-.184.508-.362,1.018-.568,1.517-.2.483-.34.986-.545,1.47-.332.784-.575,1.606-.869,2.409-.33.9-.631,1.814-.976,2.7a26.7,26.7,0,0,1-1.108,2.875,20.12,20.12,0,0,1-.674,1.981c-.085.288-.242.541-.327.826a5.073,5.073,0,0,1-.288.84.529.529,0,0,0-.028.464c.194.5.421,1,.59,1.507a8.773,8.773,0,0,1,.5,1.489c0,.03.084.072.124.067s.082-.059.094-.1c.117-.4.308-.789.411-1.182.134-.513.371-.982.508-1.491.149-.552.4-1.077.6-1.616.177-.473.348-.948.522-1.423.113-.311.208-.63.343-.931.371-.828.637-1.7.961-2.54.255-.666.485-1.344.731-2.015.138-.376.262-.758.4-1.133.234-.619.5-1.227.709-1.853.106-.316.254-.615.348-.929s.234-.589.323-.883c.2-.671.477-1.312.7-1.972.1-.3.243-.581.333-.878a8.318,8.318,0,0,1,.3-.839c.19-.449.337-.916.505-1.373.2-.556.416-1.109.619-1.665.191-.524.37-1.052.562-1.576.221-.605.466-1.2.675-1.811.349-1.023.795-2.01,1.09-3.054a5.847,5.847,0,0,0,.341-.934.244.244,0,0,1,.288-.2,1.262,1.262,0,0,0,.169,0q2.6,0,5.2,0c.378,0,.371,0,.254.356-.341,1.025-.775,2.017-1.116,3.042-.369,1.109-.868,2.169-1.186,3.3a7.845,7.845,0,0,0-.554,1.41c-.2.461-.286.981-.481,1.439-.425,1-.731,2.035-1.129,3.037-.446,1.119-.806,2.267-1.247,3.383-.287.727-.582,1.458-.855,2.188-.328.879-.621,1.781-.955,2.658-.322.844-.652,1.691-.964,2.538-.324.881-.637,1.774-.961,2.656a23.16,23.16,0,0,1-1.1,2.876,12.145,12.145,0,0,1-.817,2.319c-.32.845-.594,1.709-.956,2.542-.275.632-.491,1.3-.712,1.965-.194.579-.446,1.136-.628,1.718-.287.916-.725,1.777-.962,2.711-.051.2-.25.348-.231.586,0,.025-.106.084-.163.084-1.319.005-2.638,0-3.956.006-.112,0-.139-.033-.176-.146-.178-.547-.377-1.087-.577-1.625-.176-.473-.362-.943-.546-1.413a22.911,22.911,0,0,0-.9-2.339c-.021-.04-.045-.08-.067-.12a.951.951,0,0,1-.047.15c-.322.64-.507,1.334-.786,1.992-.157.368-.268.755-.407,1.131-.24.654-.485,1.306-.728,1.959a2.118,2.118,0,0,1-.116.291.234.234,0,0,1-.14.113,2.2,2.2,0,0,1-.338.005c-1.187,0-2.374,0-3.561,0-.178,0-.212-.035-.271-.23-.2-.649-.465-1.275-.706-1.91-.173-.456-.35-.91-.519-1.368-.138-.376-.261-.758-.4-1.133-.238-.636-.508-1.261-.723-1.9-.194-.579-.444-1.136-.64-1.714-.217-.643-.485-1.268-.722-1.9-.164-.441-.292-.9-.476-1.329-.469-1.106-.829-2.254-1.3-3.363-.228-.541-.4-1.115-.606-1.671-.128-.342-.291-.672-.409-1.017q-.524-1.534-1.123-3.039c-.1-.243-.087-.524-.274-.735-.041-.046-.055-.146-.1-.156-.138-.033-.114.092-.142.172-.065.18-.153.352-.211.534-.128.4-.292.783-.449,1.171-.2.484-.385.973-.555,1.464s-.374.939-.543,1.415c-.227.64-.522,1.253-.725,1.9-.17.547-.419,1.069-.632,1.6-.277.7-.591,1.379-.815,2.091-.147.469-.345.915-.516,1.371-.335.9-.653,1.8-1.053,2.672a12.824,12.824,0,0,0-.482,1.326,12.28,12.28,0,0,1-.466,1.275c-.5,1.078-.779,2.239-1.325,3.3a3.329,3.329,0,0,0-.128.4q-.126.372-.25.744c-.24.011-.481.031-.721.031q-2.373,0-4.747,0a2.657,2.657,0,0,1-.395-.007c-.041-.006-.112-.12-.1-.146a19.97,19.97,0,0,0,.818-2.092c.226-.565.479-1.12.656-1.708a14.979,14.979,0,0,1,.631-1.6c.3-.688.548-1.394.81-2.094.17-.455.336-.921.524-1.366.224-.53.37-1.087.608-1.614.2-.44.373-.9.537-1.36.186-.525.426-1.031.6-1.558.207-.611.462-1.2.684-1.808s.447-1.209.679-1.81c.219-.568.456-1.13.675-1.7.232-.6.427-1.218.687-1.807.31-.7.516-1.442.814-2.15.236-.56.455-1.131.667-1.7.2-.552.409-1.11.649-1.652.309-.7.536-1.435.8-2.154a7.826,7.826,0,0,1,.375-.917.4.4,0,0,0,.007-.393c-.183-.452-.3-.932-.506-1.372a7.209,7.209,0,0,0-.54-1.359c-.194-.929-.68-1.755-.931-2.667-.152-.55-.438-1.062-.622-1.605-.376-1.106-.788-2.2-1.2-3.292a21.607,21.607,0,0,0-.835-2.141,13.325,13.325,0,0,1-.5-1.374c-.272-.735-.537-1.473-.834-2.2-.178-.435-.309-.886-.493-1.322-.27-.638-.489-1.305-.71-1.966a.207.207,0,0,0-.134-.117,2.11,2.11,0,0,0-.338-.006H15.745a1.262,1.262,0,0,0-.337.007c-.1.028-.234.1-.251.175a13.107,13.107,0,0,1-.7,1.858c-.3.761-.588,1.527-.887,2.289-.231.587-.465,1.173-.684,1.766-.162.44-.362.867-.55,1.3-.119.271-.217.552-.328.825-.072.177-.074.267-.294.266-1.827-.009-3.654-.005-5.482-.005H6.115c-.139,0-.154-.094-.106-.184a15.967,15.967,0,0,0,.661-1.592c.211-.516.361-1.061.59-1.563.384-.841.687-1.713,1.052-2.56.336-.782.6-1.6.932-2.383.062-.146.013-.2-.141-.2-.433,0-.866,0-1.3,0H.569c-.132,0-.264-.005-.4,0-.149.008-.21-.042-.153-.192Q.261,17.84.5,17.2q.314-.831.63-1.661c.28-.732.576-1.459.8-2.214a.273.273,0,0,1,.289-.206c.3.009.6,0,.9,0Zm9.61-3.165c-.395,0-.79,0-1.185,0-.038,0-.076.044-.114.067a.637.637,0,0,0,.08.079c.6.413,1.2.819,1.8,1.239.376.264.4.381.254.872q-.037.125-.079.249c-.2.594-.4,1.188-.595,1.785-.019.06.021.138.034.208a.493.493,0,0,0,.19-.046c.1-.081.175-.21.286-.269a5.132,5.132,0,0,0,1.179-.838,5.558,5.558,0,0,1,.536-.329c.167-.126.277-.087.432.029.686.515,1.384,1.015,2.079,1.518.028.021.078.01.118.014a.287.287,0,0,0,0-.111c-.351-.8-.547-1.653-.875-2.46a.324.324,0,0,1,.143-.424c.053-.04.135-.044.19-.084.619-.461,1.23-.932,1.858-1.38.07-.05.184-.043.146-.159-.009-.028-.143-.026-.218-.019-.109.01-.217.053-.326.053-.715.005-1.43,0-2.144,0-.217,0-.3-.079-.366-.308-.234-.821-.515-1.629-.781-2.44-.009-.028-.041-.048-.063-.072a.72.72,0,0,0-.079.081.507.507,0,0,0-.082.135c-.228.714-.453,1.43-.68,2.145a.576.576,0,0,1-.611.456c-.376.006-.753,0-1.129,0" transform="translate(0 0)" fill="#ffcb00"/>
  </g>
</svg>
