<svg id="pj_logo" xmlns="http://www.w3.org/2000/svg" xmlns:xlink="http://www.w3.org/1999/xlink" width="106.704" height="23.068" viewBox="0 0 106.704 23.068">
  <defs>
    <clipPath id="clip-path">
      <rect id="Rectangle_28" data-name="Rectangle 28" width="106.704" height="23.068" fill="#fff"/>
    </clipPath>
  </defs>
  <g id="Group_33" data-name="Group 33" transform="translate(0 0)" clip-path="url(#clip-path)">
    <path id="Path_18" data-name="Path 18" d="M14.513,4.053C14.4,3.887,11.722,0,10.024,0S5.648,3.887,5.539,4.046c-.269.362-6.564,8.915-5.394,13.919.493,2.108,2.367,3.659,5.42,4.485a19.176,19.176,0,0,0,4.458.618h0a19.189,19.189,0,0,0,4.459-.618c3.053-.827,4.927-2.377,5.419-4.485,1.17-5-5.126-13.557-5.39-13.912M7.31,6.24a.718.718,0,0,1,.718-.719h3.989a.719.719,0,0,1,.719.719V7.3H7.31Zm.179,10.22V19.5H6.87a1.506,1.506,0,0,1-1.5-1.518V10.5A2.427,2.427,0,0,1,7.792,8.069H10.3a1.276,1.276,0,0,1,1.272,1.272V14.22a1.207,1.207,0,0,1-1.207,1.207H8.522A1.033,1.033,0,0,0,7.489,16.46m7.194,1.377c0,1.408-1.4,1.626-1.826,1.66V19.5H8.468V18.442a.952.952,0,0,1,.92-1.026,1.05,1.05,0,0,1,.113-.007h1.842a1.345,1.345,0,0,0,.833-.334,1.2,1.2,0,0,0,.367-.741c0-.043.007-.086.007-.132l-.011-6.82a1.724,1.724,0,0,0-.505-1.194.092.092,0,0,1,.066-.156,2.584,2.584,0,0,1,2.584,2.584Z" transform="translate(0 0)" fill="#fff"/>
    <path id="Path_19" data-name="Path 19" d="M107.679,30.58V24.324a2.618,2.618,0,0,1,.019-.385v-.173a.227.227,0,0,1,.193-.173.247.247,0,0,1,.115-.019h5.774a3.136,3.136,0,0,1,2.117.9,3.2,3.2,0,0,1,.963,2.021,4.761,4.761,0,0,1,.019.52v2.348a4.98,4.98,0,0,1-.058.77,3,3,0,0,1-.6,1.309,3.247,3.247,0,0,1-2.04,1.232,5.093,5.093,0,0,1-.539.039h-2.81c-.192.019-.289.1-.289.289a.731.731,0,0,0-.019.192v4.1a.273.273,0,0,1-.289.289h-2.31a.25.25,0,0,1-.231-.231.432.432,0,0,0-.019-.154V30.58Zm2.849-2.425v1.308a.539.539,0,0,0,.019.173.235.235,0,0,0,.154.193c.039.019.077.019.116.039h2.752l.231-.058a.5.5,0,0,0,.192-.212c.02-.058.02-.115.039-.173v-.308c.019-.289,0-.6,0-.886,0-.365.019-.731,0-1.078a2.617,2.617,0,0,0-.019-.385.3.3,0,0,0-.154-.25.425.425,0,0,0-.212-.1h-2.791a.177.177,0,0,0-.1.019.232.232,0,0,0-.212.231.8.8,0,0,0-.019.212Z" transform="translate(-82.474 -18.056)" fill="#fff"/>
    <path id="Path_20" data-name="Path 20" d="M155.994,30.58v6.64a.33.33,0,0,1-.019.135.248.248,0,0,1-.212.231h-2.31a.243.243,0,0,1-.116-.019.2.2,0,0,1-.173-.173.332.332,0,0,1-.019-.135V23.9a.331.331,0,0,1,.019-.135.252.252,0,0,1,.193-.174.538.538,0,0,1,.173-.019H155.7a.248.248,0,0,0,.116.019c.077.039.135.077.154.154,0,.058.019.116.019.173v6.66Z" transform="translate(-117.298 -18.056)" fill="#fff"/>
    <path id="Path_21" data-name="Path 21" d="M171.478,30.58V27.058a1.746,1.746,0,0,1,.019-.308,3.026,3.026,0,0,1,.712-1.983,3.077,3.077,0,0,1,2.079-1.155,3.52,3.52,0,0,1,.424-.038h2.752a2.986,2.986,0,0,1,1.1.193,3.19,3.19,0,0,1,.866.481,3.031,3.031,0,0,1,.712.77,2.9,2.9,0,0,1,.52,1.367,3.38,3.38,0,0,1,.019.443v1.578a.283.283,0,0,1-.038.135.223.223,0,0,1-.173.116.334.334,0,0,1-.135.019h-2.194a.145.145,0,0,1-.1-.019.2.2,0,0,1-.173-.173.241.241,0,0,1-.02-.116V27.116l-.019-.192a.966.966,0,0,0-.039-.231.361.361,0,0,0-.231-.212.563.563,0,0,0-.192-.058h-2.541l-.135.019a.41.41,0,0,0-.327.327.376.376,0,0,0-.019.154.715.715,0,0,0-.019.212v6.891a1.171,1.171,0,0,0,.019.25.482.482,0,0,0,.019.154.369.369,0,0,0,.327.288.208.208,0,0,0,.1.019h2.6c.058-.019.116-.019.154-.039a.455.455,0,0,0,.25-.212.82.82,0,0,0,.039-.212c0-.077.019-.154.019-.231V32.717a.238.238,0,0,1,.02-.115.19.19,0,0,1,.135-.135.243.243,0,0,1,.115-.019.8.8,0,0,1,.212-.019H180.2a.953.953,0,0,1,.231.019.251.251,0,0,1,.25.231v.135c0,.558.019,1.1,0,1.636a3.022,3.022,0,0,1-.655,1.867,2.954,2.954,0,0,1-1.27,1,2.826,2.826,0,0,1-1.174.269h-2.964a3.254,3.254,0,0,1-1.54-.442,3.2,3.2,0,0,1-1.405-1.694,2.771,2.771,0,0,1-.173-.981,2.433,2.433,0,0,1-.019-.385Z" transform="translate(-131.339 -18.056)" fill="#fff"/>
    <path id="Path_22" data-name="Path 22" d="M215.346,30.561V24.286a2.113,2.113,0,0,1,0-.346.647.647,0,0,1,.019-.192.2.2,0,0,1,.192-.154.733.733,0,0,1,.193-.019h2.156a.348.348,0,0,1,.135.039.186.186,0,0,1,.135.154.431.431,0,0,0,.019.154V29a3.232,3.232,0,0,0,.019.423c0,.038.019.058.019.1a.085.085,0,0,0,.135.039.445.445,0,0,0,.135-.135c.058-.1.115-.192.173-.269.385-.635.77-1.27,1.174-1.906.4-.674.809-1.328,1.213-1.982.25-.423.5-.828.751-1.232l.135-.231a.423.423,0,0,0,.077-.1.455.455,0,0,1,.25-.135h2.695l.077.019a.161.161,0,0,1,.115.154.273.273,0,0,1-.038.115c-.019.058-.058.1-.077.154l-1.04,1.732c-.481.77-.943,1.54-1.405,2.31-.365.6-.712,1.174-1.078,1.771l-.116.192a.513.513,0,0,0-.019.443,2.054,2.054,0,0,0,.115.212c.231.423.462.827.674,1.232.173.289.327.577.482.886l.52.923c.173.289.327.6.481.886l.52.924c.154.269.308.558.462.847l.346.635a1.173,1.173,0,0,1,.135.269.164.164,0,0,1,.038.135.145.145,0,0,1-.1.135c-.039.019-.058.038-.1.038H222.3a.446.446,0,0,1-.231-.115.7.7,0,0,1-.135-.193c-.135-.231-.25-.462-.385-.693l-.731-1.328c-.154-.27-.308-.558-.481-.847l-.52-.963a.388.388,0,0,0-.058-.1.343.343,0,0,1-.077-.1.209.209,0,0,0-.212,0,.348.348,0,0,0-.077.1,1.3,1.3,0,0,0-.135.212l-.9,1.482a.966.966,0,0,0-.154.519v1.463a.953.953,0,0,1-.019.231v.135a.2.2,0,0,1-.173.173.243.243,0,0,1-.116.019h-2.252c-.039,0-.077-.019-.116-.019a.209.209,0,0,1-.154-.154.371.371,0,0,1-.019-.154,1.885,1.885,0,0,1,0-.327V30.561Z" transform="translate(-164.933 -18.056)" fill="#fff"/>
    <path id="Path_23" data-name="Path 23" d="M260.764,30.58V24.19a1.789,1.789,0,0,1,.019-.308.32.32,0,0,1,.02-.135.209.209,0,0,1,.154-.154c.02,0,.058-.019.077-.019h2.329c.038,0,.058.019.1.019a.215.215,0,0,1,.135.154.418.418,0,0,1,.019.154,1.687,1.687,0,0,1,.019.309v10.24a.238.238,0,0,0,.02.115.19.19,0,0,0,.135.135.563.563,0,0,0,.173.038h4.273a.324.324,0,0,1,.135.019.208.208,0,0,1,.154.154.24.24,0,0,1,.019.115V37.3a.208.208,0,0,1-.019.1.2.2,0,0,1-.173.173.241.241,0,0,1-.115.019h-7.141a.242.242,0,0,1-.116-.019.247.247,0,0,1-.193-.212v-.135a1.29,1.29,0,0,1-.019-.269Z" transform="translate(-199.726 -18.056)" fill="#fff"/>
    <path id="Path_24" data-name="Path 24" d="M362.024,23.576h1.289a.3.3,0,0,1,.327.25.7.7,0,0,1,.077.212c.173.635.366,1.271.539,1.887.212.751.423,1.482.616,2.233.173.559.327,1.117.481,1.675.193.635.366,1.29.539,1.925.154.558.327,1.1.481,1.636.174.616.347,1.232.52,1.829l.52,1.867a.691.691,0,0,1,.039.192.125.125,0,0,1,0,.116.147.147,0,0,1-.116.154.144.144,0,0,1-.1.019.8.8,0,0,1-.212.019h-2.04a.953.953,0,0,1-.231-.019.315.315,0,0,1-.288-.193.447.447,0,0,1-.038-.154c-.1-.308-.173-.6-.27-.886-.058-.25-.135-.481-.192-.712l-.058-.173a.341.341,0,0,0-.269-.212.731.731,0,0,0-.212-.019h-2.964a.327.327,0,0,0-.308.269c-.038.077-.057.173-.1.269-.135.462-.27.924-.385,1.386-.038.1-.058.173-.1.25a.248.248,0,0,1-.25.173.433.433,0,0,1-.154.019h-2.213a.431.431,0,0,1-.154-.019h-.058a.222.222,0,0,1-.154-.193l.039-.212c.077-.231.135-.481.212-.731L357.6,33.8c.192-.712.4-1.424.6-2.136.212-.77.443-1.54.654-2.31.193-.712.4-1.406.6-2.117l.4-1.444c.154-.539.327-1.1.481-1.655l.058-.231c.019-.058.058-.115.077-.173a.342.342,0,0,1,.212-.154h1.348Zm0,8.8h.693a.208.208,0,0,1,.1-.019.185.185,0,0,0,.135-.173v-.154c-.02-.038-.02-.1-.039-.135-.135-.5-.269-.982-.423-1.482-.077-.269-.135-.539-.212-.808-.038-.077-.058-.173-.1-.25a.107.107,0,0,0-.058-.1.085.085,0,0,0-.154-.019.167.167,0,0,0-.058.116,1.676,1.676,0,0,0-.1.288c-.173.578-.346,1.174-.5,1.752-.058.192-.115.366-.154.558a.675.675,0,0,0-.038.192.16.16,0,0,0,.115.193c.038.019.077.019.116.039h.674Z" transform="translate(-273.126 -18.057)" fill="#fff"/>
    <path id="Path_25" data-name="Path 25" d="M405.51,30.561V23.92a.419.419,0,0,1,.019-.154.25.25,0,0,1,.212-.173.242.242,0,0,1,.115-.019h5.678a3.132,3.132,0,0,1,1.655.481A3.243,3.243,0,0,1,414.615,26a3.536,3.536,0,0,1,.1.77v2.752a3.168,3.168,0,0,1-.866,2.156,3.4,3.4,0,0,1-.635.539.5.5,0,0,0-.154.135.217.217,0,0,0-.058.212,1.1,1.1,0,0,0,.077.231c.115.308.25.616.366.924.346.866.693,1.752,1.059,2.618l.289.731a1.1,1.1,0,0,1,.077.231c.058.154-.02.27-.193.289h-2.6a.369.369,0,0,1-.289-.212,2.153,2.153,0,0,1-.135-.308c-.385-.924-.751-1.848-1.136-2.772-.154-.4-.327-.809-.5-1.213a.693.693,0,0,0-.077-.173.35.35,0,0,0-.27-.193h-.924a.523.523,0,0,0-.173.02.206.206,0,0,0-.192.173.475.475,0,0,0-.019.154V37.3c-.019.193-.115.27-.308.289H405.8a.213.213,0,0,1-.1-.019.206.206,0,0,1-.173-.193.243.243,0,0,1-.019-.116v-6.7Zm2.849-2.425v1.405c0,.058.019.115.019.154a.216.216,0,0,0,.154.135c.039.019.077.019.116.038H411.4c.058-.019.116-.019.173-.038a.363.363,0,0,0,.231-.212.373.373,0,0,0,.058-.192V26.885l-.019-.135a.389.389,0,0,0-.327-.308.374.374,0,0,0-.135-.019h-2.714c-.038,0-.077.019-.116.019a.252.252,0,0,0-.173.192.242.242,0,0,0-.019.116v1.386Z" transform="translate(-310.59 -18.056)" fill="#fff"/>
    <path id="Path_26" data-name="Path 26" d="M332.127,37.587h2.137a3.72,3.72,0,0,0,.654-.039,2.572,2.572,0,0,0,.828-.25,3.087,3.087,0,0,0,.982-.674,3.384,3.384,0,0,0,.866-1.636,3.274,3.274,0,0,0,.058-.6V23.939a.331.331,0,0,0-.019-.135.267.267,0,0,0-.25-.231H335.11a.212.212,0,0,0-.1.019.207.207,0,0,0-.192.193.372.372,0,0,0-.019.154v10.24a.537.537,0,0,1-.019.173.411.411,0,0,1-.366.366c-.039,0-.077.019-.115.019h-1.629l-.812,2.849Z" transform="translate(-254.181 -18.056)" fill="#fff"/>
    <path id="Path_27" data-name="Path 27" d="M304.045,34.737h-3.431a.332.332,0,0,1-.135-.019.2.2,0,0,1-.173-.173c0-.039-.019-.077-.019-.116V32.312a.171.171,0,0,1,.019-.1.184.184,0,0,1,.154-.173.364.364,0,0,1,.154-.039h3.176a.246.246,0,0,0,.212-.192.381.381,0,0,0,.019-.135V29.464c0-.039-.019-.1-.019-.135a.233.233,0,0,0-.135-.135.459.459,0,0,0-.154-.039h-3.118a.383.383,0,0,1-.135-.019c-.077-.02-.115-.077-.154-.154,0-.039-.019-.077-.019-.116V26.749a.144.144,0,0,1,.019-.1c.019-.1.058-.173.154-.192a.354.354,0,0,1,.135-.038h4.273A.319.319,0,0,0,305,26.4c.116-.019.193-.077.193-.192a.791.791,0,0,0,.019-.212V24.036a.79.79,0,0,0-.019-.212.251.251,0,0,0-.231-.25h-7.18a.29.29,0,0,0-.135.019.207.207,0,0,0-.192.193c0,.058-.019.1-.019.154V37.221a.323.323,0,0,0,.019.135.228.228,0,0,0,.173.212c.039,0,.077.019.116.019h5.487Z" transform="translate(-227.815 -18.056)" fill="#fff"/>
    <path id="Path_28" data-name="Path 28" d="M446.742,23.8h-.337v-.225h.917V23.8h-.337v.882h-.244Z" transform="translate(-341.913 -18.06)" fill="#fff"/>
    <path id="Path_29" data-name="Path 29" d="M451.124,23.58h.263l.291.468.291-.468h.263v1.107h-.242v-.723l-.312.473h-.006l-.309-.468v.718h-.239Z" transform="translate(-345.527 -18.06)" fill="#fff"/>
  </g>
</svg>
