<svg id="playing_random_icon" xmlns="http://www.w3.org/2000/svg" width="20.223" height="23.112" viewBox="0 0 20.223 23.112">
  <path id="Vector_" data-name="Vector " d="M14.727.282a.963.963,0,0,1,1.362,0l3.852,3.852a.963.963,0,0,1,0,1.362L16.089,9.348a.963.963,0,0,1-1.362-1.362l2.208-2.208H13.267a.963.963,0,0,0-.873.557L7.169,17.588a2.889,2.889,0,0,1-2.62,1.672H.963a.963.963,0,0,1,0-1.926H4.549a.963.963,0,0,0,.873-.557L10.646,5.524a2.889,2.889,0,0,1,2.62-1.672h3.668L14.727,1.644A.963.963,0,0,1,14.727.282ZM0,4.815a.963.963,0,0,1,.963-.963H4.549a2.889,2.889,0,0,1,2.62,1.672L7.993,7.3a.963.963,0,0,1-1.747.811L5.422,6.336a.963.963,0,0,0-.873-.557H.963A.963.963,0,0,1,0,4.815Zm14.727,8.949a.963.963,0,0,1,1.362,0l3.852,3.852a.963.963,0,0,1,0,1.362L16.089,22.83a.963.963,0,0,1-1.362-1.362l2.208-2.208H13.267a2.889,2.889,0,0,1-2.62-1.672l-.824-1.774A.963.963,0,1,1,11.57,15l.824,1.774a.963.963,0,0,0,.873.557h3.668l-2.208-2.208A.963.963,0,0,1,14.727,13.764Z" transform="translate(0 0)" fill="#a7a9ac"/>
</svg>
