<svg id="repeat_icon" xmlns="http://www.w3.org/2000/svg" width="19.26" height="23.112" viewBox="0 0 19.26 23.112">
  <path id="Vector" d="M14.282.282a.963.963,0,0,1,1.362,0L19.5,4.134a.963.963,0,0,1,0,1.362L15.644,9.348a.963.963,0,1,1-1.362-1.362l3.171-3.171L14.282,1.644A.963.963,0,0,1,14.282.282Z" transform="translate(-0.518 0)" fill="#a7a9ac"/>
  <path id="Vector-2" data-name="Vector" d="M4.815,5.926A2.889,2.889,0,0,0,1.926,8.815v1.926a.963.963,0,0,1-1.926,0V8.815A4.815,4.815,0,0,1,4.815,4H18.3a.963.963,0,1,1,0,1.926Z" transform="translate(0 -0.148)" fill="#a7a9ac"/>
  <path id="Vector-3" data-name="Vector" d="M5.5,14.282a.963.963,0,0,1,0,1.362L2.325,18.815,5.5,21.986a.963.963,0,1,1-1.362,1.362L.282,19.5a.963.963,0,0,1,0-1.362l3.852-3.852A.963.963,0,0,1,5.5,14.282Z" transform="translate(0 -0.518)" fill="#a7a9ac"/>
  <path id="Vector-4" data-name="Vector" d="M18.3,12a.963.963,0,0,1,.963.963v1.926A4.815,4.815,0,0,1,14.445,19.7H.963a.963.963,0,0,1,0-1.926H14.445a2.889,2.889,0,0,0,2.889-2.889V12.963A.963.963,0,0,1,18.3,12Z" transform="translate(0 -0.444)" fill="#a7a9ac"/>
</svg>
