<svg xmlns="http://www.w3.org/2000/svg" width="13.655" height="11.668" viewBox="0 0 13.655 11.668">
  <g id="repeat_one_icon" transform="translate(0 0)">
    <path id="Fill_185" data-name="Fill 185" d="M1300.84,523.452a.574.574,0,0,1-.568-.578l0-1.812a2.585,2.585,0,0,1,2.56-2.6h9.149l-.471-.477a.584.584,0,0,1,0-.818.563.563,0,0,1,.8,0l1.425,1.448a.579.579,0,0,1,0,.852l-1.425,1.447a.566.566,0,0,1-.8,0,.584.584,0,0,1,0-.818l.471-.48h-9.149a1.435,1.435,0,0,0-1.422,1.445l0,1.809a.573.573,0,0,1-.569.578h0" transform="translate(-1300.272 -517.002)" fill="#fff"/>
    <path id="Fill_186" data-name="Fill 186" d="M1313.359,524.484a.576.576,0,0,1,.568.581l0,1.809a2.583,2.583,0,0,1-2.56,2.6h-9.148l.471.48a.585.585,0,0,1,0,.818.56.56,0,0,1-.8,0l-1.426-1.448a.58.58,0,0,1,0-.852l1.426-1.448a.563.563,0,0,1,.8,0,.585.585,0,0,1,0,.818l-.471.477h9.148a1.435,1.435,0,0,0,1.422-1.442l0-1.812a.575.575,0,0,1,.569-.578h0" transform="translate(-1300.272 -519.27)" fill="#fff"/>
    <path id="Fill_187" data-name="Fill 187" d="M1310.23,526.452a.43.43,0,0,1-.427-.433v-1.962l-.505.477a.42.42,0,0,1-.6-.023.439.439,0,0,1,.022-.613l1.222-1.156a.424.424,0,0,1,.461-.078.434.434,0,0,1,.256.4v2.959a.43.43,0,0,1-.427.433" transform="translate(-1302.791 -518.708)" fill="#fff"/>
  </g>
</svg>
