<svg xmlns="http://www.w3.org/2000/svg" width="72" height="82.974" viewBox="0 0 72 82.974">
  <g id="us_army_logo" transform="translate(-18 -709.026)">
    <g id="Polygon_2" data-name="Polygon 2" transform="translate(25 709.026)" fill="none">
      <path d="M29,0l5.8,22.036L58,20.626,38.385,32.836,46.923,54,29,39.51,11.077,54l8.538-21.164L0,20.626l23.2,1.409Z" stroke="none"/>
      <path d="M 29 15.71450042724609 L 26.23295593261719 26.22713279724121 L 15.52272415161133 25.57651329040527 L 24.58221054077148 31.21547698974609 L 20.55739593505859 41.19197845458984 L 29 34.36661148071289 L 37.44260406494141 41.19197845458984 L 33.41778945922852 31.21547698974609 L 42.47727966308594 25.57651329040527 L 31.76704406738281 26.22713279724121 L 29 15.71450042724609 M 29 0 L 34.79999923706055 22.0355110168457 L 58 20.62616729736328 L 38.38459777832031 32.83551025390625 L 46.92297744750977 54 L 29 39.51027679443359 L 11.07702255249023 54 L 19.61539840698242 32.83551025390625 L 0 20.62616729736328 L 23.20000076293945 22.0355110168457 L 29 0 Z" stroke="none" fill="#fecb2f"/>
    </g>
    <text id="U.S._ARMY" data-name="U.S. ARMY" transform="translate(54 786)" fill="#fff" font-size="18" font-family="Teko-Bold, Teko" font-weight="700"><tspan x="-35" y="0">U.S. ARMY</tspan></text>
  </g>
</svg>
