<svg id="us_flag" xmlns="http://www.w3.org/2000/svg" width="142.873" height="75.21" viewBox="0 0 142.873 75.21">
  <rect id="Rectangle_3" data-name="Rectangle 3" width="142.872" height="5.785" transform="translate(0 69.425)" fill="#fecb2f"/>
  <rect id="Rectangle_4" data-name="Rectangle 4" width="142.872" height="5.785" transform="translate(0 57.854)" fill="#fecb2f"/>
  <rect id="Rectangle_5" data-name="Rectangle 5" width="142.872" height="5.785" transform="translate(0 46.284)" fill="#fecb2f"/>
  <rect id="Rectangle_6" data-name="Rectangle 6" width="86.654" height="5.785" transform="translate(56.219 34.713)" fill="#fecb2f"/>
  <rect id="Rectangle_7" data-name="Rectangle 7" width="86.654" height="5.785" transform="translate(56.219 23.143)" fill="#fecb2f"/>
  <rect id="Rectangle_8" data-name="Rectangle 8" width="86.654" height="5.785" transform="translate(56.219 11.571)" fill="#fecb2f"/>
  <rect id="Rectangle_9" data-name="Rectangle 9" width="86.654" height="5.785" transform="translate(56.219 0)" fill="#fecb2f"/>
  <path id="Path_10" data-name="Path 10" d="M5.1,34.258l.5,1.561,1.641,0-1.329.962.51,1.56L5.1,37.371l-1.326.968.511-1.56-1.33-.962,1.641,0Zm9.463,0,.505,1.561,1.64,0-1.329.962.51,1.56-1.326-.968-1.325.968.51-1.56-1.329-.962,1.641,0Zm9.464,0,.5,1.561,1.641,0-1.329.962.51,1.56-1.326-.968-1.326.968.511-1.56-1.329-.962,1.641,0Zm9.465,0,.5,1.561,1.641,0-1.329.962.51,1.56-1.325-.968-1.326.968.509-1.56-1.329-.962,1.641,0Zm9.463,0,.5,1.561,1.641,0-1.329.962.511,1.56-1.326-.968-1.325.968.51-1.56-1.329-.962,1.641,0Zm9.464,0,.5,1.561,1.641,0-1.33.962.51,1.56-1.325-.968-1.326.968.511-1.56-1.33-.962,1.641,0ZM9.876,30.207l.5,1.561,1.641,0-1.329.962.51,1.559-1.325-.966-1.326.966.51-1.559-1.329-.962,1.641,0Zm9.463,0,.5,1.561,1.641,0-1.33.962.511,1.559-1.326-.966-1.325.966.51-1.559L17.2,31.766l1.641,0Zm9.464,0,.5,1.561,1.641,0-1.329.962.509,1.559L28.8,33.321l-1.326.966.511-1.559-1.329-.962,1.641,0Zm9.464,0,.5,1.561,1.641,0-1.33.962.51,1.559-1.325-.966-1.325.966.509-1.559-1.329-.962,1.641,0Zm9.464,0,.5,1.561,1.641,0-1.329.962.511,1.559-1.326-.966-1.326.966.511-1.559-1.329-.962,1.641,0ZM5.1,26.129l.5,1.561,1.641,0-1.329.962.51,1.559L5.1,29.242l-1.326.966.511-1.559-1.33-.962,1.641,0Zm9.463,0,.505,1.561,1.64,0-1.329.962.51,1.559-1.326-.966-1.325.966.51-1.559-1.329-.962,1.641,0Zm9.464,0,.5,1.561,1.641,0-1.329.962.51,1.559-1.326-.966-1.326.966.511-1.559-1.329-.962,1.641,0Zm9.465,0,.5,1.561,1.641,0-1.329.962.51,1.559-1.325-.966-1.326.966.509-1.559-1.329-.962,1.641,0Zm9.463,0,.5,1.561,1.641,0-1.329.962.511,1.559-1.326-.966-1.325.966.51-1.559-1.329-.962,1.641,0Zm9.464,0,.5,1.561,1.641,0-1.33.962.51,1.559-1.325-.966-1.326.966.511-1.559-1.33-.962,1.641,0ZM19.339,22.09l.5,1.561,1.641,0-1.33.962.511,1.559L19.339,25.2l-1.325.966.51-1.559L17.2,23.648l1.641,0Zm9.464,0,.5,1.561,1.641,0-1.329.962.509,1.559L28.8,25.2l-1.326.966.511-1.559-1.329-.962,1.641,0Zm9.464,0,.5,1.561,1.641,0-1.33.962.51,1.559L38.268,25.2l-1.325.966.509-1.559-1.329-.962,1.641,0Zm9.464,0,.5,1.561,1.641,0-1.329.962.511,1.559L47.732,25.2l-1.326.966.511-1.559-1.329-.962,1.641,0ZM9.876,22.072l.5,1.562,1.641,0-1.329.962.51,1.56-1.325-.967-1.326.967.51-1.56L7.731,23.63l1.641,0ZM5.1,18l.5,1.561,1.641,0-1.329.962.51,1.559L5.1,21.113l-1.326.966.511-1.559-1.33-.962,1.641,0Zm9.463,0,.505,1.561,1.64,0-1.329.962.51,1.559-1.326-.966-1.325.966.51-1.559-1.329-.962,1.641,0Zm9.464,0,.5,1.561,1.641,0-1.329.962.51,1.559-1.326-.966-1.326.966.511-1.559-1.329-.962,1.641,0Zm9.465,0,.5,1.561,1.641,0-1.329.962.51,1.559-1.325-.966-1.326.966.509-1.559-1.329-.962,1.641,0Zm9.463,0,.5,1.561,1.641,0-1.329.962.511,1.559-1.326-.966-1.325.966.51-1.559-1.329-.962,1.641,0Zm9.464,0,.5,1.561,1.641,0-1.33.962.51,1.559-1.325-.966-1.326.966.511-1.559-1.33-.962,1.641,0ZM9.876,13.937l.5,1.561,1.641,0-1.329.962.51,1.56L9.876,17.05l-1.326.967.51-1.56L7.731,15.5l1.641,0Zm9.463,0,.5,1.561,1.641,0-1.33.962.511,1.56-1.326-.967-1.325.967.51-1.56L17.2,15.5l1.641,0Zm9.464,0,.5,1.561,1.641,0-1.329.962.509,1.56L28.8,17.05l-1.326.967.511-1.56L26.659,15.5l1.641,0Zm9.464,0,.5,1.561,1.641,0-1.33.962.51,1.56-1.325-.967-1.325.967.509-1.56L36.123,15.5l1.641,0Zm9.464,0,.5,1.561,1.641,0-1.329.962.511,1.56-1.326-.967-1.326.967.511-1.56L45.588,15.5l1.641,0ZM5.1,9.872l.5,1.561,1.641,0-1.329.962.51,1.56L5.1,12.984l-1.326.968.511-1.56-1.33-.962,1.641,0Zm9.463,0,.505,1.561,1.64,0-1.329.962.51,1.56-1.326-.968-1.325.968.51-1.56-1.329-.962,1.641,0Zm9.464,0,.5,1.561,1.641,0-1.329.962.51,1.56-1.326-.968-1.326.968.511-1.56-1.329-.962,1.641,0Zm9.465,0,.5,1.561,1.641,0-1.329.962.51,1.56-1.325-.968-1.326.968.509-1.56-1.329-.962,1.641,0Zm9.463,0,.5,1.561,1.641,0-1.329.962.511,1.56-1.326-.968-1.325.968.51-1.56-1.329-.962,1.641,0Zm9.464,0,.5,1.561,1.641,0-1.33.962.51,1.56-1.325-.968-1.326.968.511-1.56-1.33-.962,1.641,0ZM9.876,5.8l.5,1.561,1.641,0-1.329.961.51,1.56L9.876,8.914,8.55,9.882l.51-1.56L7.731,7.36l1.641,0Zm9.463,0,.5,1.561,1.641,0-1.33.961.511,1.56-1.326-.968-1.325.968.51-1.56L17.2,7.36l1.641,0Zm9.464,0,.5,1.561,1.641,0-1.329.961.509,1.56L28.8,8.914l-1.326.968.511-1.56L26.659,7.36l1.641,0Zm9.464,0,.5,1.561,1.641,0-1.33.961.51,1.56-1.325-.968-1.325.968.509-1.56L36.123,7.36l1.641,0Zm9.464,0,.5,1.561,1.641,0-1.329.961.511,1.56-1.326-.968-1.326.968.511-1.56L45.588,7.36l1.641,0ZM5.1,1.743,5.6,3.3l1.641,0-1.329.962.51,1.56L5.1,4.855l-1.326.967.511-1.56L2.952,3.3l1.641,0Zm9.463,0L15.065,3.3l1.64,0-1.329.962.51,1.56L14.56,4.855l-1.325.967.51-1.56L12.416,3.3l1.641,0Zm9.464,0,.5,1.561,1.641,0-1.329.962.51,1.56-1.326-.967L22.7,5.822l.511-1.56L21.88,3.3l1.641,0Zm9.465,0,.5,1.561,1.641,0L34.3,4.263l.51,1.56-1.325-.967-1.326.967.509-1.56L31.344,3.3l1.641,0Zm9.463,0,.5,1.561,1.641,0-1.329.962.511,1.56-1.326-.967-1.325.967.51-1.56L40.809,3.3l1.641,0Zm9.464,0,.5,1.561,1.641,0-1.33.962.51,1.56-1.325-.967-1.326.967.511-1.56L50.272,3.3l1.641,0ZM0,40.5H57.291V0H0Z" transform="translate(0 0)" fill="#fecb2f"/>
</svg>
