<svg id="volume_icon" xmlns="http://www.w3.org/2000/svg" width="13.652" height="9.755" viewBox="0 0 13.652 9.755">
  <path id="Fill_179" data-name="Fill 179" d="M7.4,9.755a.579.579,0,0,1-.3-.082L3.536,7.587H.569A.556.556,0,0,1,0,7.045V2.709a.556.556,0,0,1,.569-.542H3.536L7.1.081A.589.589,0,0,1,7.4,0a.58.58,0,0,1,.277.07.535.535,0,0,1,.292.472V9.213a.537.537,0,0,1-.292.474A.591.591,0,0,1,7.4,9.755ZM3.7,6.5a.569.569,0,0,1,.3.082L6.826,8.243V1.512L4,3.17a.575.575,0,0,1-.3.082H1.138V6.5Z" fill="#fff"/>
  <path id="Fill_180" data-name="Fill 180" d="M1387.213,526.907a.44.44,0,0,0,.3-.119,4.454,4.454,0,0,0,0-6.514.44.44,0,0,0-.6,0,.393.393,0,0,0,0,.574,3.668,3.668,0,0,1,0,5.365.393.393,0,0,0,0,.575.441.441,0,0,0,.3.119" transform="translate(-1375.278 -518.653)" fill="#fff"/>
  <path id="Fill_181" data-name="Fill 181" d="M1385.193,526.149a.44.44,0,0,0,.3-.119,2.619,2.619,0,0,0,0-3.832.439.439,0,0,0-.6,0,.392.392,0,0,0,0,.574,1.834,1.834,0,0,1,0,2.683.392.392,0,0,0,0,.574.44.44,0,0,0,.3.119" transform="translate(-1374.666 -519.237)" fill="#fff"/>
</svg>
